<svg version="1.1" xmlns="http://www.w3.org/2000/svg" viewBox="-200.70399780273436 -1078.272021484375 11889.936136893413 2463.4881072998046"><desc>Created with Snap</desc><defs></defs><g><g transform="matrix(20.5454,0,0,20.5454,9430.4752,-873.7991)"><path d="M15.614,84.176l0.163,0.083c0.041,0.02,0.113,0.06,0.184,0.101c0.294,0.126,0.633,0.202,0.983,0.216l0.157-0.002  l6.836,0.004c0.778,0,1.511-0.302,2.061-0.849c0.548-0.547,0.85-1.275,0.849-2.049c0-1.6-1.31-2.899-2.92-2.899h-3.953l0.001-17.43  c0.015-0.279,0.001-0.526-0.041-0.731c-0.147-0.905-0.623-1.634-1.321-2.078l-0.341-0.273l-6.337-6.338l7.045-7.051  c0.355-0.316,0.616-0.68,0.776-1.079c0.076-0.181,0.106-0.324,0.141-0.466l0.038-0.134c0.036-0.216,0.054-0.53,0.042-0.796  l0.002-17.671h3.952c1.637,0,2.918-1.232,2.918-2.806c0-0.769-0.298-1.487-0.841-2.022c-0.548-0.54-1.283-0.837-2.069-0.837  l-6.873,0.042c-0.364,0-0.724,0.071-1.077,0.21c-0.097,0.059-0.164,0.098-0.232,0.134l-0.155,0.079  c-0.062,0.03-0.125,0.058-0.181,0.094c-0.112,0.076-0.224,0.182-0.336,0.287l-0.145,0.124c-0.085,0.092-0.181,0.211-0.272,0.343  l-0.073,0.104c-0.068,0.116-0.127,0.238-0.185,0.361l-0.061,0.12c-0.034,0.093-0.053,0.192-0.078,0.288  c-0.022,0.092-0.053,0.188-0.085,0.284c-0.022,0.095-0.052,0.201-0.084,0.307c-0.011,0.03-0.006-0.006-0.002-0.045  c-0.021,0.207-0.067,0.385-0.112,0.524l0.084,19.137l-8.226,8.274c-0.554,0.555-0.849,1.308-0.833,2.124l0.001,0.05l-0.001,0.051  c-0.025,0.811,0.28,1.575,0.858,2.152l8.202,8.275l-0.085,18.979c0.047,0.144,0.092,0.321,0.112,0.527  c0.005,0.061,0.017,0.122,0.029,0.183c0.039,0.094,0.072,0.186,0.098,0.277c0.035,0.13,0.064,0.243,0.1,0.346  c0.032,0.059,0.061,0.116,0.087,0.175c0.047,0.104,0.102,0.214,0.165,0.321l0.103,0.152c0.085,0.12,0.169,0.225,0.252,0.313  c0.051,0.041,0.099,0.082,0.146,0.125c0.108,0.102,0.214,0.204,0.337,0.286C15.483,84.114,15.549,84.144,15.614,84.176z" fill="#e94b3c" style=""></path><path d="M94.986,51.784c0.025-0.909-0.279-1.674-0.857-2.252l-8.199-8.273l0.085-18.979c-0.048-0.144-0.093-0.324-0.112-0.533  c-0.005-0.055-0.017-0.116-0.029-0.177c-0.042-0.102-0.076-0.201-0.104-0.301c-0.029-0.112-0.059-0.221-0.095-0.325  c-0.034-0.062-0.065-0.125-0.093-0.188c-0.053-0.115-0.109-0.225-0.167-0.323l-0.09-0.13c-0.078-0.111-0.166-0.222-0.257-0.318  c-0.051-0.041-0.099-0.082-0.145-0.125c-0.109-0.102-0.219-0.207-0.346-0.291c-0.07-0.046-0.142-0.077-0.211-0.111l-0.123-0.062  c-0.064-0.033-0.145-0.078-0.224-0.124c-0.271-0.115-0.608-0.189-0.959-0.203l-0.159,0.002l-6.836-0.004  c-0.778,0-1.511,0.302-2.061,0.85c-0.549,0.546-0.851,1.273-0.85,2.047c0,1.599,1.31,2.899,2.921,2.899h3.951l-0.001,17.433  c-0.015,0.276-0.001,0.522,0.041,0.728c0.146,0.905,0.624,1.634,1.32,2.078l0.342,0.273l6.338,6.337l-7.045,7.052  c-0.355,0.317-0.616,0.68-0.775,1.078c-0.075,0.178-0.105,0.319-0.14,0.462l-0.04,0.142c-0.036,0.216-0.054,0.533-0.042,0.789  l-0.003,17.676h-3.951c-1.637,0-2.919,1.232-2.919,2.806c-0.001,0.769,0.298,1.486,0.842,2.022c0.546,0.539,1.28,0.836,2.065,0.837  l6.875-0.042c0.364,0,0.725-0.07,1.074-0.209l0.398-0.218c0.062-0.031,0.127-0.06,0.186-0.097c0.096-0.067,0.214-0.176,0.333-0.285  l0.135-0.117c0.087-0.094,0.184-0.213,0.273-0.343l0.074-0.105c0.067-0.116,0.126-0.238,0.184-0.361l0.06-0.117  c0.036-0.099,0.056-0.203,0.082-0.306c0.021-0.084,0.05-0.176,0.083-0.269c0.023-0.101,0.053-0.203,0.084-0.307  c0.012-0.027,0.005,0.013,0.001,0.059c0.021-0.216,0.068-0.398,0.115-0.54L85.93,62.186l8.226-8.274  C94.709,53.357,95.003,52.603,94.986,51.784z" fill="#e94b3c" style=""></path><path d="M66.554,7.476c-0.353-0.285-0.886-0.627-1.405-0.627l-0.226-0.009L45.272,5c-0.046,0.007-0.101,0.018-0.156,0.026  c-0.048,0.008-0.096,0.015-0.144,0.022c-0.144,0.053-0.279,0.093-0.413,0.12c-0.12,0.023-0.233,0.049-0.339,0.083  c-0.054,0.021-0.114,0.055-0.175,0.085l-0.355,0.166c-0.123,0.066-0.248,0.166-0.373,0.264l-0.14,0.103  C43.105,5.935,43,6.045,42.879,6.187l-0.072,0.083c-0.082,0.113-0.16,0.245-0.222,0.353l-0.072,0.121  c-0.055,0.124-0.088,0.229-0.124,0.331c-0.02,0.058-0.045,0.121-0.072,0.185c-0.002,0.023-0.007,0.059-0.013,0.094l-0.028,0.178  c-0.014,0.083-0.033,0.174-0.053,0.265l-6.729,73.171c-0.126,0.853,0.097,1.672,0.63,2.304l8.846,10.516  c0.035,0.055,0.066,0.112,0.106,0.164C45.638,94.621,46.451,95,47.316,95c0,0,0,0,0,0c0.692,0,1.339-0.235,1.87-0.683l10.687-8.99  c0.11-0.093,0.229-0.218,0.364-0.382l0.066-0.081c0.369-0.5,0.559-1.035,0.59-1.61l5.165-56.225l0.048-0.172  c0.058-0.208,0.089-0.368,0.101-0.505c0.011-0.131,0.008-0.28-0.01-0.478l-0.016-0.179l1.445-15.707  C67.71,9.032,67.309,8.089,66.554,7.476z M55.346,79.945l-13.793-1.194l4.708-51.219l13.79,1.197L55.346,79.945z M60.581,22.924  L46.79,21.73L47.762,11.2l13.788,1.197L60.581,22.924z" fill="#e94b3c" style=""></path><desc>Created with Snap</desc><defs></defs></g><g><g transform="matrix(1.024,0,0,-1.024,0,0)"><path d="M198 0L104 0L104 746L105 746L484 208L443 216L821 746L823 746L823 0L727 0L727 526L733 477L460 91L458 91L181 477L198 522L198 0ZM1031 0L1031 723L1501 723L1501 630L1128 630L1128 410L1461 410L1461 317L1128 317L1128 93L1515 93L1515 0L1031 0ZM2094 668L2057 594Q2020 613 1976 627Q1932 641 1890 641Q1832 641 1797 614Q1763 587 1763 542Q1763 508 1785 484Q1807 461 1843 444Q1879 427 1918 412Q1952 399 1985 383Q2018 367 2044 343Q2071 319 2086 284Q2102 249 2102 197Q2102 140 2073 93Q2045 46 1992 19Q1939 -8 1866 -8Q1818 -8 1774 3Q1731 14 1694 31Q1657 49 1628 68L1671 144Q1695 127 1726 111Q1757 96 1791 86Q1825 77 1857 77Q1891 77 1924 89Q1958 102 1980 128Q2002 154 2002 197Q2002 234 1982 258Q1963 283 1931 300Q1899 318 1863 332Q1829 345 1794 360Q1759 376 1729 398Q1699 421 1681 454Q1663 487 1663 534Q1663 591 1690 633Q1718 676 1766 700Q1814 725 1876 727Q1946 727 1999 710Q2053 693 2094 668ZM2676 668L2639 594Q2602 613 2558 627Q2514 641 2472 641Q2414 641 2379 614Q2345 587 2345 542Q2345 508 2367 484Q2389 461 2425 444Q2461 427 2500 412Q2534 399 2567 383Q2600 367 2626 343Q2653 319 2668 284Q2684 249 2684 197Q2684 140 2655 93Q2627 46 2574 19Q2521 -8 2448 -8Q2400 -8 2356 3Q2313 14 2276 31Q2239 49 2210 68L2253 144Q2277 127 2308 111Q2339 96 2373 86Q2407 77 2439 77Q2473 77 2506 89Q2540 102 2562 128Q2584 154 2584 197Q2584 234 2564 258Q2545 283 2513 300Q2481 318 2445 332Q2411 345 2376 360Q2341 376 2311 398Q2281 421 2263 454Q2245 487 2245 534Q2245 591 2272 633Q2300 676 2348 700Q2396 725 2458 727Q2528 727 2581 710Q2635 693 2676 668ZM2870 0L2775 0L3091 753L3097 753L3412 0L3301 0L3065 601L3134 646L2870 0ZM2932 190L2960 274L3229 274L3261 190L2932 190ZM4114 354L4114 62Q4099 49 4072 36Q4045 24 4012 14Q3980 4 3945 -2Q3911 -8 3881 -8Q3794 -8 3724 19Q3655 46 3605 94Q3556 142 3529 207Q3503 272 3503 348Q3503 438 3532 509Q3562 581 3613 630Q3665 680 3732 705Q3799 731 3874 731Q3937 731 3991 716Q4045 701 4086 678L4053 589Q4033 601 4003 611Q3974 621 3943 627Q3912 634 3885 634Q3821 634 3769 614Q3717 595 3680 558Q3643 522 3623 470Q3603 419 3603 355Q3603 296 3623 247Q3643 198 3680 162Q3717 127 3768 107Q3820 88 3882 88Q3919 88 3955 95Q3991 103 4017 117L4017 261L3873 261L3873 354L4114 354ZM4299 0L4299 723L4769 723L4769 630L4396 630L4396 410L4729 410L4729 317L4396 317L4396 93L4783 93L4783 0L4299 0ZM5267 723L5453 723Q5562 723 5624 678Q5687 634 5687 540Q5687 483 5661 441Q5635 399 5588 375Q5542 351 5479 348L5465 398Q5538 396 5596 372Q5654 348 5688 305Q5722 262 5722 203Q5722 149 5702 110Q5682 72 5648 47Q5614 23 5571 11Q5528 0 5482 0L5267 0L5267 723ZM5364 406L5473 406Q5533 406 5560 439Q5587 473 5587 521Q5587 578 5552 604Q5517 630 5458 630L5364 630L5364 406ZM5364 90L5477 90Q5517 90 5550 102Q5584 114 5603 139Q5623 164 5623 202Q5623 244 5600 268Q5578 292 5543 302Q5508 313 5471 313L5364 313L5364 90ZM5840 361Q5840 436 5868 502Q5897 569 5948 620Q5999 672 6065 701Q6132 731 6209 731Q6285 731 6351 701Q6418 672 6469 620Q6521 569 6550 502Q6579 436 6579 361Q6579 284 6550 217Q6521 150 6469 99Q6418 49 6351 20Q6285 -8 6209 -8Q6132 -8 6065 20Q5999 48 5948 98Q5897 148 5868 215Q5840 282 5840 361ZM5940 360Q5940 303 5961 253Q5982 204 6019 166Q6056 128 6105 106Q6154 85 6211 85Q6267 85 6316 106Q6365 128 6401 166Q6437 204 6458 253Q6479 303 6479 361Q6479 418 6458 468Q6437 519 6400 557Q6363 595 6314 616Q6265 638 6209 638Q6152 638 6103 616Q6054 594 6017 556Q5980 518 5960 467Q5940 417 5940 360ZM6689 630L6689 723L7169 723L7169 630L6975 630L6975 0L6878 0L6878 630L6689 630ZM7270 630L7270 723L7750 723L7750 630L7556 630L7556 0L7459 0L7459 630L7270 630ZM7904 0L7904 723L8001 723L8001 93L8368 93L8368 0L7904 0ZM8526 0L8526 723L8996 723L8996 630L8623 630L8623 410L8956 410L8956 317L8623 317L8623 93L9010 93L9010 0L8526 0Z" fill="#2d2926" style=""></path></g></g><g transform="matrix(0.75,0,0,0.75,2190.5918,887.5521)"><g transform="matrix(1.024,0,0,-1.024,0,0)"><path d="M448 323L417 323L413 326Q413 349 399 363Q386 378 367 386Q348 394 326 397Q305 400 289 400Q253 400 226 386Q199 372 182 349Q165 326 156 296Q148 266 148 234Q148 200 157 169Q167 138 186 114Q205 90 234 75Q264 61 304 61Q338 61 376 68Q414 75 444 91L461 67L446 39Q435 31 417 22Q400 14 378 6Q356 -1 330 -6Q305 -11 280 -11Q231 -11 186 6Q142 24 108 55Q75 87 55 131Q35 176 35 230Q35 285 55 330Q75 375 110 407Q145 439 191 457Q238 475 291 475Q315 475 339 471Q364 468 386 463Q409 458 427 451Q445 445 456 439L459 430L448 323ZM814 -3L808 7Q811 16 812 33Q814 50 817 64L816 67Q804 52 788 38Q773 24 754 13Q735 2 713 -5Q692 -11 668 -11Q632 -11 605 0Q578 11 560 29Q542 47 532 71Q523 95 523 121Q523 160 540 189Q557 218 585 236Q611 253 646 262Q681 272 714 277Q747 282 774 283Q801 285 810 285L824 285Q823 316 820 333Q817 351 812 363Q803 383 782 391Q762 400 734 400Q717 400 697 397Q678 395 661 388Q644 381 631 368Q619 356 617 336L613 333L581 333L572 427L575 433Q581 439 598 446Q615 453 639 459Q663 466 691 470Q720 475 749 475Q788 475 822 465Q856 456 880 437Q905 418 919 389Q933 361 933 323Q933 282 932 253Q932 224 931 199Q930 174 929 150Q929 127 929 98Q931 75 934 65Q937 55 944 49Q952 41 968 39Q985 38 999 38L1002 34L1004 0L1003 -4Q986 -2 964 -1Q942 0 923 0Q895 0 867 -1Q839 -1 814 -3ZM808 115Q811 120 814 127Q818 134 819 144L824 229L815 229Q784 229 754 225Q724 221 700 210Q676 199 661 179Q646 159 646 127Q646 100 659 84Q673 68 696 68Q713 68 730 72Q748 77 763 84Q778 91 790 99Q802 108 808 115ZM1224 375L1227 373Q1250 417 1290 446Q1330 475 1384 475Q1415 475 1445 467Q1475 459 1499 442Q1524 425 1540 398Q1557 372 1562 336Q1565 310 1565 281Q1566 252 1566 223Q1567 189 1567 160Q1567 132 1567 98Q1567 75 1572 63Q1578 52 1586 48Q1597 42 1609 40Q1622 38 1638 38L1641 34L1643 0L1641 -4Q1620 -2 1594 -1Q1569 0 1545 0Q1521 0 1497 -1Q1473 -1 1452 -3L1445 17Q1448 30 1450 56Q1453 82 1454 98Q1456 136 1457 169Q1458 202 1458 228Q1458 251 1457 278Q1456 305 1450 325Q1442 357 1417 372Q1393 388 1361 388Q1331 388 1306 377Q1281 366 1263 350Q1246 335 1236 318Q1226 301 1226 288L1226 185Q1226 165 1226 152Q1226 140 1226 131Q1227 122 1227 114Q1228 107 1229 98Q1231 77 1237 66Q1244 56 1252 49Q1260 41 1271 39Q1282 38 1297 38L1302 33L1304 0L1302 -4Q1295 -4 1281 -3Q1267 -2 1251 -2Q1235 -1 1221 -1Q1207 0 1200 0L1145 0Q1138 0 1123 -1Q1109 -1 1093 -2Q1078 -2 1063 -3Q1049 -4 1042 -4L1041 0L1043 34L1046 38Q1062 38 1074 39Q1087 41 1095 49Q1102 56 1108 67Q1114 78 1116 98Q1117 105 1117 112Q1118 119 1118 127Q1119 135 1119 146Q1119 157 1119 173L1119 276Q1119 295 1119 308Q1119 321 1118 331Q1118 341 1117 349Q1117 357 1116 366Q1114 376 1110 385Q1106 394 1103 397Q1093 410 1078 412Q1063 414 1047 414L1043 418L1043 452L1047 455L1098 455Q1121 455 1147 455Q1174 456 1194 459L1229 464L1235 445Q1227 434 1225 414Q1224 395 1224 375ZM1793 526L1721 516L1719 521Q1718 569 1715 619Q1713 670 1707 717L1708 721L1805 730L1807 726Q1801 683 1798 632Q1795 581 1795 530L1793 526ZM2172 405L2167 400L2057 400Q2057 342 2056 292Q2056 243 2056 206Q2056 170 2055 147Q2055 124 2055 119Q2055 80 2070 67Q2085 54 2105 54Q2120 54 2139 57Q2158 60 2171 65L2177 54L2167 21Q2140 6 2111 -3Q2083 -11 2059 -11Q1998 -11 1972 17Q1946 45 1946 89Q1946 98 1947 124Q1948 151 1949 191Q1950 232 1951 285Q1952 338 1952 400L1900 400L1896 405L1896 449L1900 453L1952 467Q1952 499 1950 532Q1949 566 1947 598L1954 604L1968 605Q1975 605 1987 606Q2000 607 2014 608Q2028 610 2040 612Q2053 614 2059 616L2068 612Q2063 587 2060 545Q2057 504 2057 467L2167 473L2172 469L2172 405ZM2756 405L2751 400L2644 400L2644 258Q2644 220 2644 195Q2644 170 2644 152Q2645 135 2646 122Q2647 110 2648 98Q2650 83 2656 69Q2662 56 2670 49Q2678 41 2692 39Q2707 38 2716 38L2721 33L2723 0L2721 -4Q2715 -4 2702 -3Q2689 -2 2675 -2Q2661 -1 2648 -1Q2635 0 2629 0L2565 0Q2558 0 2543 -1Q2529 -1 2513 -2Q2497 -2 2482 -3Q2468 -4 2461 -4L2460 0L2462 34L2465 38Q2480 38 2494 40Q2508 43 2517 51Q2523 57 2527 66Q2532 75 2534 94Q2536 113 2537 146Q2538 179 2538 234L2538 400L2484 400L2480 405L2480 448L2484 452L2538 467L2538 524Q2538 626 2585 685Q2633 745 2725 745Q2748 745 2775 735Q2802 726 2831 705L2836 695L2824 608L2788 608Q2786 637 2763 654Q2740 671 2711 671Q2686 671 2672 662Q2659 654 2652 640Q2646 627 2645 609Q2644 591 2644 573L2644 467L2751 473L2756 469L2756 405ZM3061 0L3059 -4Q3052 -4 3038 -3Q3024 -2 3008 -2Q2992 -1 2978 -1Q2964 0 2957 0L2903 0Q2896 0 2881 -1Q2867 -1 2851 -2Q2836 -2 2821 -3Q2807 -4 2800 -4L2799 0L2801 34L2804 38Q2819 38 2835 39Q2851 41 2859 49Q2866 56 2869 67Q2872 78 2874 98Q2875 105 2875 112Q2876 119 2876 127Q2877 135 2877 146Q2877 157 2877 173L2877 286Q2877 305 2877 316Q2877 328 2876 336Q2876 344 2875 350Q2875 357 2874 366Q2872 376 2868 385Q2864 394 2861 397Q2851 410 2836 412Q2821 414 2805 414L2801 418L2801 452L2805 455L2856 455Q2879 455 2905 455Q2931 456 2951 459L2986 464L2992 445Q2990 441 2988 432Q2987 424 2986 414Q2986 405 2985 395Q2985 386 2985 380Q2985 372 2984 365Q2984 359 2984 350Q2984 342 2983 329Q2983 316 2983 297L2983 185Q2983 165 2983 152Q2984 140 2984 131Q2985 122 2985 114Q2986 107 2987 98Q2989 77 2991 66Q2994 56 3002 49Q3010 41 3024 39Q3039 38 3054 38L3059 33L3061 0ZM2856 613Q2856 625 2861 637Q2866 649 2875 658Q2884 668 2895 673Q2907 679 2920 679Q2945 679 2965 658Q2986 638 2986 613Q2986 600 2980 588Q2975 577 2965 568Q2956 559 2944 554Q2932 549 2920 549Q2894 549 2875 568Q2856 587 2856 613ZM3288 375L3291 373Q3314 417 3354 446Q3394 475 3448 475Q3479 475 3509 467Q3539 459 3563 442Q3588 425 3604 398Q3621 372 3626 336Q3629 310 3629 281Q3630 252 3630 223Q3631 189 3631 160Q3631 132 3631 98Q3631 75 3636 63Q3642 52 3650 48Q3661 42 3673 40Q3686 38 3702 38L3705 34L3707 0L3705 -4Q3684 -2 3658 -1Q3633 0 3609 0Q3585 0 3561 -1Q3537 -1 3516 -3L3509 17Q3512 30 3514 56Q3517 82 3518 98Q3520 136 3521 169Q3522 202 3522 228Q3522 251 3521 278Q3520 305 3514 325Q3506 357 3481 372Q3457 388 3425 388Q3395 388 3370 377Q3345 366 3327 350Q3310 335 3300 318Q3290 301 3290 288L3290 185Q3290 165 3290 152Q3290 140 3290 131Q3291 122 3291 114Q3292 107 3293 98Q3295 77 3301 66Q3308 56 3316 49Q3324 41 3335 39Q3346 38 3361 38L3366 33L3368 0L3366 -4Q3359 -4 3345 -3Q3331 -2 3315 -2Q3299 -1 3285 -1Q3271 0 3264 0L3209 0Q3202 0 3187 -1Q3173 -1 3157 -2Q3142 -2 3127 -3Q3113 -4 3106 -4L3105 0L3107 34L3110 38Q3126 38 3138 39Q3151 41 3159 49Q3166 56 3172 67Q3178 78 3180 98Q3181 105 3181 112Q3182 119 3182 127Q3183 135 3183 146Q3183 157 3183 173L3183 276Q3183 295 3183 308Q3183 321 3182 331Q3182 341 3181 349Q3181 357 3180 366Q3178 376 3174 385Q3170 394 3167 397Q3157 410 3142 412Q3127 414 3111 414L3107 418L3107 452L3111 455L3162 455Q3185 455 3211 455Q3238 456 3258 459L3293 464L3299 445Q3291 434 3289 414Q3288 395 3288 375ZM4136 -3L4129 17Q4129 24 4132 43Q4136 63 4138 78L4137 82Q4111 36 4065 12Q4019 -11 3969 -11Q3914 -11 3873 9Q3833 29 3806 62Q3779 95 3766 138Q3753 181 3753 227Q3753 294 3774 341Q3796 389 3829 418Q3862 448 3901 461Q3941 475 3978 475Q4023 475 4067 454Q4111 433 4139 385L4141 389Q4139 418 4139 448Q4139 479 4139 508Q4139 539 4139 559Q4139 580 4138 594Q4138 608 4137 619Q4137 630 4136 642Q4135 652 4129 661Q4123 670 4120 673Q4106 684 4092 687Q4079 690 4061 690L4057 694L4057 727L4061 731L4118 731Q4141 731 4166 731Q4192 732 4212 735L4247 740L4253 721Q4251 717 4249 706Q4248 696 4247 684Q4247 672 4246 661Q4246 650 4246 644Q4246 629 4245 615Q4245 602 4245 584Q4245 567 4244 541Q4244 516 4244 476L4244 258Q4244 216 4244 190Q4245 165 4245 148Q4246 131 4246 118Q4247 106 4248 88Q4250 70 4253 62Q4257 54 4264 49Q4272 41 4286 39Q4300 38 4312 38L4316 34L4318 0L4316 -4Q4299 -2 4279 -1Q4259 0 4241 0Q4214 0 4187 -1Q4160 -1 4136 -3ZM3869 228Q3869 198 3876 169Q3884 141 3899 118Q3914 96 3937 82Q3961 69 3993 69Q4027 69 4053 80Q4080 92 4098 108Q4117 125 4127 143Q4138 161 4139 174L4139 285Q4137 298 4127 316Q4118 335 4100 352Q4083 369 4057 381Q4031 394 3995 394Q3962 394 3938 379Q3914 365 3898 342Q3883 319 3876 289Q3869 259 3869 228ZM4422 -117L4408 -117L4392 -106L4390 -92Q4401 -67 4407 -39Q4413 -10 4413 1Q4413 17 4405 32Q4397 48 4397 70Q4397 82 4405 91Q4414 100 4426 106Q4439 112 4453 115Q4468 118 4481 118Q4494 118 4502 112Q4510 106 4514 98Q4519 90 4520 81Q4521 72 4521 65Q4521 38 4510 8Q4499 -21 4483 -47Q4467 -73 4450 -92Q4434 -111 4422 -117ZM4960 132L4960 136Q4909 156 4886 199Q4863 242 4863 294Q4863 331 4876 364Q4889 397 4913 421Q4938 446 4972 460Q5007 474 5051 474Q5077 474 5102 469Q5128 464 5147 455Q5189 456 5225 460Q5262 464 5294 473L5299 469L5292 394L5287 389L5212 397L5211 394Q5227 376 5236 346Q5245 316 5245 289Q5245 256 5232 226Q5220 196 5196 173Q5172 151 5136 137Q5100 124 5053 124Q5047 124 5037 124Q5028 125 5023 125Q5006 118 4997 106Q4989 94 4989 86Q4989 64 5036 58L5133 48Q5166 44 5194 34Q5223 24 5244 7Q5266 -9 5278 -33Q5290 -56 5290 -87Q5290 -116 5277 -146Q5264 -175 5238 -198Q5212 -220 5166 -234Q5120 -248 5060 -248Q5006 -248 4966 -237Q4927 -225 4900 -206Q4874 -186 4861 -162Q4848 -137 4848 -111Q4848 -69 4875 -37Q4903 -4 4946 9L4947 12Q4923 21 4908 34Q4894 48 4894 68Q4894 94 4915 110Q4936 126 4960 132ZM5055 193Q5075 193 5090 201Q5106 209 5117 222Q5128 235 5133 252Q5139 270 5139 289Q5139 309 5133 329Q5127 349 5116 365Q5105 382 5088 392Q5071 403 5049 403Q5028 403 5013 393Q4998 384 4987 369Q4977 354 4972 335Q4967 316 4967 298Q4967 279 4972 260Q4978 241 4989 226Q5000 211 5016 202Q5033 193 5055 193ZM5090 -29L5023 -22Q5001 -23 4985 -30Q4969 -37 4958 -49Q4947 -60 4941 -74Q4936 -87 4936 -100Q4936 -129 4971 -148Q5006 -166 5066 -166Q5120 -166 5157 -149Q5194 -131 5194 -97Q5194 -78 5185 -66Q5176 -54 5161 -47Q5146 -39 5127 -35Q5109 -31 5090 -29ZM5790 293L5782 255L5758 237Q5704 237 5651 236Q5599 235 5544 235L5462 235Q5461 228 5461 221Q5461 215 5461 209Q5461 183 5470 157Q5479 131 5498 110Q5518 90 5548 77Q5578 65 5621 65Q5652 65 5686 73Q5721 82 5751 96L5768 89L5768 53L5758 42Q5734 23 5687 6Q5641 -11 5587 -11Q5534 -11 5490 6Q5447 24 5415 56Q5384 88 5366 132Q5349 176 5349 230Q5349 285 5367 330Q5385 375 5416 407Q5448 439 5490 457Q5533 475 5582 475Q5608 475 5640 468Q5673 461 5703 441Q5733 422 5757 386Q5781 351 5790 293ZM5583 400Q5534 400 5504 370Q5475 341 5467 302L5517 302Q5552 302 5586 303Q5620 305 5655 305Q5668 305 5674 312Q5680 320 5680 328Q5680 358 5651 379Q5622 400 5583 400ZM6133 405L6128 400L6018 400Q6018 342 6017 292Q6017 243 6017 206Q6017 170 6016 147Q6016 124 6016 119Q6016 80 6031 67Q6046 54 6066 54Q6081 54 6100 57Q6119 60 6132 65L6138 54L6128 21Q6101 6 6072 -3Q6044 -11 6020 -11Q5959 -11 5933 17Q5907 45 5907 89Q5907 98 5908 124Q5909 151 5910 191Q5911 232 5912 285Q5913 338 5913 400L5861 400L5857 405L5857 449L5861 453L5913 467Q5913 499 5911 532Q5910 566 5908 598L5915 604L5929 605Q5936 605 5948 606Q5961 607 5975 608Q5989 610 6001 612Q6014 614 6020 616L6029 612Q6024 587 6021 545Q6018 504 6018 467L6128 473L6133 469L6133 405ZM6717 405L6712 400L6605 400L6605 258Q6605 220 6605 195Q6605 170 6605 152Q6606 135 6607 122Q6608 110 6609 98Q6611 83 6617 69Q6623 56 6631 49Q6639 41 6653 39Q6668 38 6677 38L6682 33L6684 0L6682 -4Q6676 -4 6663 -3Q6650 -2 6636 -2Q6622 -1 6609 -1Q6596 0 6590 0L6526 0Q6519 0 6504 -1Q6490 -1 6474 -2Q6458 -2 6443 -3Q6429 -4 6422 -4L6421 0L6423 34L6426 38Q6441 38 6455 40Q6469 43 6478 51Q6484 57 6488 66Q6493 75 6495 94Q6497 113 6498 146Q6499 179 6499 234L6499 400L6445 400L6441 405L6441 448L6445 452L6499 467L6499 524Q6499 626 6546 685Q6594 745 6686 745Q6709 745 6736 735Q6763 726 6792 705L6797 695L6785 608L6749 608Q6747 637 6724 654Q6701 671 6672 671Q6647 671 6633 662Q6620 654 6613 640Q6607 627 6606 609Q6605 591 6605 573L6605 467L6712 473L6717 469L6717 405ZM7013 475Q7072 475 7118 454Q7164 434 7195 399Q7227 365 7243 320Q7260 275 7260 227Q7260 181 7245 138Q7230 95 7199 62Q7168 29 7122 9Q7076 -11 7015 -11Q6952 -11 6905 10Q6858 31 6827 65Q6797 99 6782 142Q6767 186 6767 232Q6767 281 6784 325Q6801 369 6832 402Q6864 436 6909 455Q6955 475 7013 475ZM7014 58Q7045 58 7068 72Q7092 87 7108 110Q7124 134 7131 164Q7139 195 7139 227Q7139 258 7130 289Q7122 321 7105 346Q7089 371 7065 387Q7041 403 7010 403Q6978 403 6954 388Q6931 373 6916 349Q6901 325 6893 295Q6886 265 6886 234Q6886 202 6894 171Q6903 140 6919 114Q6936 89 6960 73Q6984 58 7014 58ZM7721 84L7718 86Q7691 43 7651 16Q7611 -11 7550 -11Q7522 -11 7495 -4Q7469 3 7447 18Q7426 33 7410 57Q7394 82 7387 117Q7385 126 7383 137Q7382 148 7381 165Q7381 183 7380 208Q7380 234 7380 272L7380 362Q7380 373 7375 384Q7370 395 7367 398Q7357 410 7342 412Q7327 414 7311 414L7308 418L7308 452L7311 455L7360 455Q7383 455 7409 455Q7435 456 7455 459L7490 464L7496 445Q7494 441 7493 430Q7492 420 7491 408Q7490 396 7490 385Q7490 374 7490 368Q7490 355 7489 336Q7489 318 7488 298Q7488 279 7487 261Q7487 243 7487 231Q7487 205 7489 178Q7491 152 7497 130Q7507 95 7527 78Q7548 62 7585 62Q7615 62 7638 72Q7662 82 7679 96Q7696 110 7707 126Q7718 143 7721 156L7721 256Q7721 302 7719 327Q7718 352 7716 366Q7714 379 7710 387Q7707 395 7704 398Q7693 410 7676 412Q7659 414 7649 414L7645 418L7645 452L7649 455L7667 455Q7677 455 7693 455Q7710 455 7728 455Q7746 456 7763 456Q7780 457 7792 459L7827 464L7833 445Q7828 416 7826 369Q7825 344 7824 328Q7824 313 7824 303Q7824 293 7824 287Q7824 282 7824 277L7824 195Q7824 140 7827 98Q7829 79 7832 67Q7835 56 7843 49Q7852 41 7864 39Q7876 38 7893 38L7897 34L7899 0L7897 -3Q7878 -1 7860 -1Q7842 0 7818 0Q7794 0 7767 -1Q7740 -1 7715 -3L7709 17Q7712 28 7715 46Q7719 65 7721 84ZM8131 375L8134 373Q8157 417 8197 446Q8237 475 8291 475Q8322 475 8352 467Q8382 459 8406 442Q8431 425 8447 398Q8464 372 8469 336Q8472 310 8472 281Q8473 252 8473 223Q8474 189 8474 160Q8474 132 8474 98Q8474 75 8479 63Q8485 52 8493 48Q8504 42 8516 40Q8529 38 8545 38L8548 34L8550 0L8548 -4Q8527 -2 8501 -1Q8476 0 8452 0Q8428 0 8404 -1Q8380 -1 8359 -3L8352 17Q8355 30 8357 56Q8360 82 8361 98Q8363 136 8364 169Q8365 202 8365 228Q8365 251 8364 278Q8363 305 8357 325Q8349 357 8324 372Q8300 388 8268 388Q8238 388 8213 377Q8188 366 8170 350Q8153 335 8143 318Q8133 301 8133 288L8133 185Q8133 165 8133 152Q8133 140 8133 131Q8134 122 8134 114Q8135 107 8136 98Q8138 77 8144 66Q8151 56 8159 49Q8167 41 8178 39Q8189 38 8204 38L8209 33L8211 0L8209 -4Q8202 -4 8188 -3Q8174 -2 8158 -2Q8142 -1 8128 -1Q8114 0 8107 0L8052 0Q8045 0 8030 -1Q8016 -1 8000 -2Q7985 -2 7970 -3Q7956 -4 7949 -4L7948 0L7950 34L7953 38Q7969 38 7981 39Q7994 41 8002 49Q8009 56 8015 67Q8021 78 8023 98Q8024 105 8024 112Q8025 119 8025 127Q8026 135 8026 146Q8026 157 8026 173L8026 276Q8026 295 8026 308Q8026 321 8025 331Q8025 341 8024 349Q8024 357 8023 366Q8021 376 8017 385Q8013 394 8010 397Q8000 410 7985 412Q7970 414 7954 414L7950 418L7950 452L7954 455L8005 455Q8028 455 8054 455Q8081 456 8101 459L8136 464L8142 445Q8134 434 8132 414Q8131 395 8131 375ZM8979 -3L8972 17Q8972 24 8975 43Q8979 63 8981 78L8980 82Q8954 36 8908 12Q8862 -11 8812 -11Q8757 -11 8716 9Q8676 29 8649 62Q8622 95 8609 138Q8596 181 8596 227Q8596 294 8617 341Q8639 389 8672 418Q8705 448 8744 461Q8784 475 8821 475Q8866 475 8910 454Q8954 433 8982 385L8984 389Q8982 418 8982 448Q8982 479 8982 508Q8982 539 8982 559Q8982 580 8981 594Q8981 608 8980 619Q8980 630 8979 642Q8978 652 8972 661Q8966 670 8963 673Q8949 684 8935 687Q8922 690 8904 690L8900 694L8900 727L8904 731L8961 731Q8984 731 9009 731Q9035 732 9055 735L9090 740L9096 721Q9094 717 9092 706Q9091 696 9090 684Q9090 672 9089 661Q9089 650 9089 644Q9089 629 9088 615Q9088 602 9088 584Q9088 567 9087 541Q9087 516 9087 476L9087 258Q9087 216 9087 190Q9088 165 9088 148Q9089 131 9089 118Q9090 106 9091 88Q9093 70 9096 62Q9100 54 9107 49Q9115 41 9129 39Q9143 38 9155 38L9159 34L9161 0L9159 -4Q9142 -2 9122 -1Q9102 0 9084 0Q9057 0 9030 -1Q9003 -1 8979 -3ZM8712 228Q8712 198 8719 169Q8727 141 8742 118Q8757 96 8780 82Q8804 69 8836 69Q8870 69 8896 80Q8923 92 8941 108Q8960 125 8970 143Q8981 161 8982 174L8982 285Q8980 298 8970 316Q8961 335 8943 352Q8926 369 8900 381Q8874 394 8838 394Q8805 394 8781 379Q8757 365 8741 342Q8726 319 8719 289Q8712 259 8712 228Z" fill="#2d2926" style=""></path></g></g></g></svg>