<svg version="1.1" xmlns="http://www.w3.org/2000/svg" viewBox="-2914.816096496582 -1034.2400390625 10640.64031677246 2424.576058959961"><desc>Created with Snap</desc><defs></defs><g><rect x="-2914.816096496582" y="-1034.2400390625" width="10640.64031677246" height="2424.576058959961" fill="#20a4f3" style=""></rect><g transform="matrix(56.568,0,0,56.568,5608.4482,-727.04)"><g display="none"><rect x="-69.333" y="-18.667" display="inline" fill="#292929" width="473.333" height="236" style=""></rect></g><g display="none"><g display="inline"><g><polygon fill="#292929" points="32,31.952 0,31.952 0,0.048    " style=""></polygon></g><g><polygon fill="#292929" points="23.347,23.325 8.653,23.325 8.653,8.675    " style=""></polygon></g></g><g display="inline"><g><polygon fill="#292929" points="0,0.048 32,0.048 32,31.952    " style=""></polygon></g><g><polygon fill="#292929" points="8.653,8.675 23.347,8.675 23.347,23.325    " style=""></polygon></g></g></g><g display="none"><g display="inline"><rect x="8.675" y="8.675" fill="#292929" stroke="#292929" stroke-miterlimit="10" width="14.65" height="14.65" style=""></rect><rect x="0.5" y="0.326" fill="#292929" stroke="#292929" stroke-miterlimit="10" width="31" height="31.348" style=""></rect><line fill="#292929" stroke="#292929" stroke-miterlimit="10" x1="0.413" y1="0.413" x2="31.587" y2="31.587" style=""></line></g></g><g display="none"><rect x="0.5" y="0.326" display="inline" fill="#292929" stroke="#292929" stroke-miterlimit="10" width="31" height="31.348" style=""></rect><rect x="8.675" y="8.675" display="inline" fill="#292929" stroke="#292929" stroke-miterlimit="10" width="14.65" height="14.65" style=""></rect><line display="inline" fill="#292929" stroke="#292929" stroke-miterlimit="10" x1="0.413" y1="0.413" x2="31.587" y2="31.587" style=""></line></g><g><g><polygon points="9.382,8.675 23.325,8.675 23.325,22.618 32,31.293 32,0 0.707,0   " fill="#292929" style=""></polygon><polygon points="22.618,23.325 8.675,23.325 8.675,9.382 0,0.707 0,32 31.293,32   " fill="#292929" style=""></polygon></g></g><desc>Created with Snap</desc><defs></defs></g><g><g transform="matrix(1.024,0,0,-1.024,0,0)"><path d="M41 0L41 700L198 700L268 199L270 199L340 700L497 700L497 0L393 0L393 530L391 530L311 0L219 0L139 530L137 530L137 0L41 0ZM579 0L579 700L879 700L879 600L689 600L689 415L840 415L840 315L689 315L689 100L879 100L879 0L579 0ZM1085 -10Q1005 -10 964 35Q923 81 923 166L923 206L1027 206L1027 158Q1027 90 1084 90Q1112 90 1126 106Q1141 123 1141 160Q1141 204 1121 237Q1101 271 1047 318Q979 378 952 426Q925 475 925 536Q925 619 967 664Q1009 710 1089 710Q1168 710 1208 664Q1249 619 1249 534L1249 505L1145 505L1145 541Q1145 577 1131 593Q1117 610 1090 610Q1035 610 1035 543Q1035 505 1055 472Q1076 439 1130 392Q1199 332 1225 283Q1251 234 1251 168Q1251 82 1208 36Q1166 -10 1085 -10ZM1457 -10Q1377 -10 1336 35Q1295 81 1295 166L1295 206L1399 206L1399 158Q1399 90 1456 90Q1484 90 1498 106Q1513 123 1513 160Q1513 204 1493 237Q1473 271 1419 318Q1351 378 1324 426Q1297 475 1297 536Q1297 619 1339 664Q1381 710 1461 710Q1540 710 1580 664Q1621 619 1621 534L1621 505L1517 505L1517 541Q1517 577 1503 593Q1489 610 1462 610Q1407 610 1407 543Q1407 505 1427 472Q1448 439 1502 392Q1571 332 1597 283Q1623 234 1623 168Q1623 82 1580 36Q1538 -10 1457 -10ZM1657 0L1771 700L1920 700L2034 0L1924 0L1904 139L1904 137L1779 137L1759 0L1657 0ZM1792 232L1891 232L1842 578L1840 578L1792 232ZM2243 -10Q2163 -10 2121 35Q2079 81 2079 166L2079 534Q2079 619 2121 664Q2163 710 2243 710Q2323 710 2365 664Q2407 619 2407 534L2407 474L2303 474L2303 541Q2303 610 2246 610Q2189 610 2189 541L2189 158Q2189 90 2246 90Q2303 90 2303 158L2303 295L2248 295L2248 395L2407 395L2407 166Q2407 81 2365 35Q2323 -10 2243 -10ZM2478 0L2478 700L2778 700L2778 600L2588 600L2588 415L2739 415L2739 315L2588 315L2588 100L2778 100L2778 0L2478 0ZM3001 0L3001 700L3167 700Q3252 700 3291 660Q3330 621 3330 539L3330 511Q3330 457 3312 423Q3295 389 3259 374L3259 372Q3341 344 3341 226L3341 166Q3341 85 3298 42Q3256 0 3174 0L3001 0ZM3111 415L3154 415Q3187 415 3203 432Q3220 449 3220 489L3220 528Q3220 566 3206 583Q3193 600 3164 600L3111 600L3111 415ZM3111 100L3174 100Q3203 100 3217 115Q3231 131 3231 169L3231 230Q3231 278 3214 296Q3198 315 3160 315L3111 315L3111 100ZM3564 -10Q3483 -10 3440 36Q3397 82 3397 166L3397 534Q3397 618 3440 664Q3483 710 3564 710Q3645 710 3688 664Q3731 618 3731 534L3731 166Q3731 82 3688 36Q3645 -10 3564 -10ZM3564 90Q3621 90 3621 159L3621 541Q3621 610 3564 610Q3507 610 3507 541L3507 159Q3507 90 3564 90ZM3891 0L3891 600L3776 600L3776 700L4116 700L4116 600L4001 600L4001 0L3891 0ZM4255 0L4255 600L4140 600L4140 700L4480 700L4480 600L4365 600L4365 0L4255 0ZM4533 0L4533 700L4643 700L4643 100L4824 100L4824 0L4533 0ZM4877 0L4877 700L5177 700L5177 600L4987 600L4987 415L5138 415L5138 315L4987 315L4987 100L5177 100L5177 0L4877 0Z" fill="#292929" style=""></path></g></g><g transform="matrix(0.75,0,0,0.75,-2654.4641,917.248)"><g transform="matrix(1.024,0,0,-1.024,0,0)"><path d="M334 -5Q255 -5 193 31Q132 68 96 131Q61 194 61 273Q61 353 95 416Q129 479 188 515Q247 552 324 552Q385 552 436 528Q488 504 527 456Q538 444 535 430Q532 417 518 407Q507 399 493 401Q480 404 470 416Q412 482 324 482Q268 482 225 455Q183 428 159 381Q136 334 136 273Q136 213 161 166Q186 119 231 92Q276 65 334 65Q373 65 405 75Q438 86 463 108Q475 118 488 119Q501 120 512 111Q524 100 525 86Q527 72 516 62Q443 -5 334 -5ZM927 -5Q850 -5 789 31Q728 68 692 131Q657 194 657 273Q657 353 693 416Q730 479 793 515Q856 552 935 552Q1014 552 1076 515Q1139 479 1175 416Q1212 353 1213 273L1182 249Q1182 177 1148 119Q1115 62 1057 28Q1000 -5 927 -5ZM935 65Q993 65 1038 92Q1084 119 1110 166Q1137 214 1137 273Q1137 333 1110 380Q1084 427 1038 454Q993 482 935 482Q878 482 832 454Q786 427 759 380Q732 333 732 273Q732 214 759 166Q786 119 832 92Q878 65 935 65ZM1174 0Q1157 0 1146 10Q1135 21 1135 38L1135 209L1154 288L1213 273L1213 38Q1213 21 1202 10Q1191 0 1174 0ZM1832 0Q1815 0 1804 11Q1793 22 1793 38L1793 298Q1793 360 1769 400Q1746 440 1705 460Q1665 480 1614 480Q1565 480 1525 461Q1486 442 1463 409Q1440 376 1440 334L1385 334Q1387 397 1419 446Q1451 496 1504 524Q1557 553 1622 553Q1693 553 1749 523Q1805 494 1837 437Q1870 380 1870 298L1870 38Q1870 22 1859 11Q1848 0 1832 0ZM1402 0Q1384 0 1373 10Q1363 21 1363 38L1363 508Q1363 526 1373 536Q1384 547 1402 547Q1419 547 1429 536Q1440 526 1440 508L1440 38Q1440 21 1429 10Q1419 0 1402 0ZM2030 567Q2018 567 2009 575Q2001 584 2001 596L1991 743Q1991 759 2002 770Q2014 781 2030 781Q2046 781 2057 770Q2069 759 2069 743L2059 596Q2059 584 2050 575Q2042 567 2030 567ZM2431 0L2410 0Q2357 0 2315 25Q2274 50 2250 93Q2226 137 2226 193L2226 682Q2226 699 2236 710Q2247 721 2264 721Q2281 721 2292 710Q2303 699 2303 682L2303 193Q2303 142 2333 109Q2363 77 2410 77L2437 77Q2453 77 2463 66Q2473 55 2473 38Q2473 21 2461 10Q2449 0 2431 0ZM2416 460L2161 460Q2146 460 2136 469Q2126 479 2126 493Q2126 508 2136 517Q2146 527 2161 527L2416 527Q2431 527 2441 517Q2451 508 2451 493Q2451 479 2441 469Q2431 460 2416 460ZM2959 0Q2944 0 2933 10Q2922 21 2922 39L2922 546Q2922 616 2946 669Q2970 722 3017 751Q3064 781 3132 781Q3149 781 3160 771Q3171 761 3171 746Q3171 731 3160 721Q3149 711 3132 711Q3087 711 3057 690Q3028 670 3013 633Q2999 597 2999 550L2999 39Q2999 21 2988 10Q2978 0 2959 0ZM3119 460L2858 460Q2842 460 2832 469Q2823 479 2823 493Q2823 508 2832 517Q2842 527 2858 527L3119 527Q3135 527 3144 517Q3154 508 3154 493Q3154 479 3144 469Q3135 460 3119 460ZM3312 0Q3294 0 3283 10Q3273 21 3273 39L3273 508Q3273 526 3283 536Q3294 547 3312 547Q3329 547 3339 536Q3350 526 3350 508L3350 39Q3350 21 3339 10Q3329 0 3312 0ZM3311 651Q3289 651 3273 667Q3257 683 3257 706Q3257 731 3273 745Q3290 760 3312 760Q3333 760 3349 745Q3366 731 3366 706Q3366 683 3350 667Q3334 651 3311 651ZM4015 0Q3998 0 3987 11Q3976 22 3976 38L3976 298Q3976 360 3952 400Q3929 440 3888 460Q3848 480 3797 480Q3748 480 3708 461Q3669 442 3646 409Q3623 376 3623 334L3568 334Q3570 397 3602 446Q3634 496 3687 524Q3740 553 3805 553Q3876 553 3932 523Q3988 494 4020 437Q4053 380 4053 298L4053 38Q4053 22 4042 11Q4031 0 4015 0ZM3585 0Q3567 0 3556 10Q3546 21 3546 38L3546 508Q3546 526 3556 536Q3567 547 3585 547Q3602 547 3612 536Q3623 526 3623 508L3623 38Q3623 21 3612 10Q3602 0 3585 0ZM4472 -5Q4393 -5 4330 31Q4267 68 4230 131Q4194 194 4194 274Q4194 353 4229 416Q4265 479 4326 515Q4387 552 4464 552Q4531 552 4585 523Q4639 495 4672 448L4672 742Q4672 760 4683 770Q4694 781 4711 781Q4728 781 4739 770Q4750 760 4750 742L4750 270Q4748 192 4711 129Q4675 67 4612 31Q4550 -5 4472 -5ZM4472 65Q4530 65 4575 92Q4621 120 4647 167Q4674 214 4674 274Q4674 333 4647 380Q4621 428 4575 455Q4530 482 4472 482Q4415 482 4369 455Q4323 428 4296 380Q4269 333 4269 274Q4269 214 4296 167Q4323 120 4369 92Q4415 65 4472 65ZM4921 -162Q4911 -162 4905 -157Q4900 -151 4900 -142Q4900 -127 4909 -115Q4918 -102 4927 -88Q4937 -74 4937 -54Q4937 -36 4930 -24Q4923 -12 4913 -3Q4904 7 4897 18Q4890 30 4890 47Q4890 72 4906 87Q4923 102 4948 102Q4978 102 4997 78Q5016 55 5016 13Q5016 -15 5008 -46Q5000 -77 4986 -104Q4972 -130 4955 -146Q4938 -162 4921 -162ZM5690 -5Q5611 -5 5550 30Q5489 66 5454 129Q5420 192 5420 273Q5420 355 5456 418Q5492 481 5555 516Q5618 552 5698 552Q5779 552 5841 516Q5904 481 5939 418Q5975 355 5976 273L5931 249Q5931 175 5900 117Q5869 60 5814 27Q5760 -5 5690 -5ZM5700 -216Q5621 -216 5561 -187Q5501 -157 5462 -106Q5451 -94 5452 -80Q5454 -66 5467 -57Q5480 -48 5496 -51Q5512 -54 5521 -66Q5550 -102 5595 -124Q5641 -146 5701 -146Q5757 -146 5802 -119Q5847 -92 5873 -43Q5900 6 5900 72L5900 224L5929 282L5976 273L5976 69Q5976 -12 5940 -77Q5904 -141 5842 -179Q5780 -216 5700 -216ZM5698 65Q5757 65 5802 91Q5848 118 5874 165Q5900 212 5900 273Q5900 334 5874 381Q5848 429 5802 455Q5757 482 5698 482Q5639 482 5593 455Q5547 429 5521 381Q5495 334 5495 273Q5495 212 5521 165Q5547 118 5593 91Q5639 65 5698 65ZM6374 -5Q6293 -5 6230 30Q6168 66 6132 129Q6097 192 6097 273Q6097 355 6130 417Q6164 480 6223 516Q6282 552 6359 552Q6435 552 6491 517Q6548 483 6579 422Q6610 361 6610 283Q6610 267 6600 257Q6590 248 6574 248L6149 248L6149 312L6582 312L6539 281Q6540 339 6518 385Q6496 431 6455 457Q6415 483 6359 483Q6302 483 6259 456Q6216 429 6192 381Q6169 334 6169 273Q6169 212 6195 165Q6222 118 6268 91Q6314 64 6374 64Q6410 64 6446 76Q6483 89 6505 108Q6516 117 6530 117Q6544 118 6554 110Q6567 98 6567 84Q6568 70 6556 60Q6523 32 6472 13Q6421 -5 6374 -5ZM6975 0L6954 0Q6901 0 6859 25Q6818 50 6794 93Q6770 137 6770 193L6770 682Q6770 699 6780 710Q6791 721 6808 721Q6825 721 6836 710Q6847 699 6847 682L6847 193Q6847 142 6877 109Q6907 77 6954 77L6981 77Q6997 77 7007 66Q7017 55 7017 38Q7017 21 7005 10Q6993 0 6975 0ZM6960 460L6705 460Q6690 460 6680 469Q6670 479 6670 493Q6670 508 6680 517Q6690 527 6705 527L6960 527Q6975 527 6985 517Q6995 508 6995 493Q6995 479 6985 469Q6975 460 6960 460ZM7503 0Q7488 0 7477 10Q7466 21 7466 39L7466 546Q7466 616 7490 669Q7514 722 7561 751Q7608 781 7676 781Q7693 781 7704 771Q7715 761 7715 746Q7715 731 7704 721Q7693 711 7676 711Q7631 711 7601 690Q7572 670 7557 633Q7543 597 7543 550L7543 39Q7543 21 7532 10Q7522 0 7503 0ZM7663 460L7402 460Q7386 460 7376 469Q7367 479 7367 493Q7367 508 7376 517Q7386 527 7402 527L7663 527Q7679 527 7688 517Q7698 508 7698 493Q7698 479 7688 469Q7679 460 7663 460ZM8050 -5Q7970 -5 7907 31Q7844 67 7808 130Q7772 193 7772 273Q7772 354 7808 417Q7844 480 7907 516Q7970 552 8050 552Q8130 552 8192 516Q8255 480 8291 417Q8327 354 8328 273Q8328 193 8291 130Q8255 67 8192 31Q8130 -5 8050 -5ZM8050 65Q8108 65 8154 92Q8200 119 8226 166Q8252 213 8252 273Q8252 333 8226 380Q8200 428 8154 455Q8108 482 8050 482Q7992 482 7946 455Q7900 428 7873 380Q7847 333 7847 273Q7847 213 7873 166Q7900 119 7946 92Q7992 65 8050 65ZM8716 -6Q8645 -6 8589 23Q8533 53 8500 110Q8468 167 8468 249L8468 509Q8468 525 8479 536Q8490 547 8506 547Q8523 547 8534 536Q8545 525 8545 509L8545 249Q8545 187 8568 147Q8592 107 8632 87Q8673 67 8724 67Q8773 67 8812 86Q8852 105 8875 138Q8898 171 8898 213L8953 213Q8950 150 8918 100Q8887 51 8834 22Q8781 -6 8716 -6ZM8936 0Q8919 0 8908 10Q8898 21 8898 39L8898 509Q8898 526 8908 536Q8919 547 8936 547Q8953 547 8964 536Q8975 526 8975 509L8975 39Q8975 21 8964 10Q8953 0 8936 0ZM9624 0Q9607 0 9596 11Q9585 22 9585 38L9585 298Q9585 360 9561 400Q9538 440 9497 460Q9457 480 9406 480Q9357 480 9317 461Q9278 442 9255 409Q9232 376 9232 334L9177 334Q9179 397 9211 446Q9243 496 9296 524Q9349 553 9414 553Q9485 553 9541 523Q9597 494 9629 437Q9662 380 9662 298L9662 38Q9662 22 9651 11Q9640 0 9624 0ZM9194 0Q9176 0 9165 10Q9155 21 9155 38L9155 508Q9155 526 9165 536Q9176 547 9194 547Q9211 547 9221 536Q9232 526 9232 508L9232 38Q9232 21 9221 10Q9211 0 9194 0ZM10081 -5Q10002 -5 9939 31Q9876 68 9839 131Q9803 194 9803 274Q9803 353 9838 416Q9874 479 9935 515Q9996 552 10073 552Q10140 552 10194 523Q10248 495 10281 448L10281 742Q10281 760 10292 770Q10303 781 10320 781Q10337 781 10348 770Q10359 760 10359 742L10359 270Q10357 192 10320 129Q10284 67 10221 31Q10159 -5 10081 -5ZM10081 65Q10139 65 10184 92Q10230 120 10256 167Q10283 214 10283 274Q10283 333 10256 380Q10230 428 10184 455Q10139 482 10081 482Q10024 482 9978 455Q9932 428 9905 380Q9878 333 9878 274Q9878 214 9905 167Q9932 120 9978 92Q10024 65 10081 65Z" fill="#292929" style=""></path></g></g></g></svg>